<?xml version="1.0" encoding="UTF-8" standalone="no"?>
<svg
   xmlns:dc="http://purl.org/dc/elements/1.1/"
   xmlns:cc="http://creativecommons.org/ns#"
   xmlns:rdf="http://www.w3.org/1999/02/22-rdf-syntax-ns#"
   xmlns:svg="http://www.w3.org/2000/svg"
   xmlns="http://www.w3.org/2000/svg"
   xmlns:xlink="http://www.w3.org/1999/xlink"
   xmlns:sodipodi="http://sodipodi.sourceforge.net/DTD/sodipodi-0.dtd"
   xmlns:inkscape="http://www.inkscape.org/namespaces/inkscape"
   width="139"
   height="20"
   version="1.1"
   id="svg1238"
   sodipodi:docname="logo-white.svg"
   inkscape:version="0.92.5 (2060ec1f9f, 2020-04-08)">
  <metadata
     id="metadata1242">
    <rdf:RDF>
      <cc:Work
         rdf:about="">
        <dc:format>image/svg+xml</dc:format>
        <dc:type
           rdf:resource="http://purl.org/dc/dcmitype/StillImage" />
      </cc:Work>
    </rdf:RDF>
  </metadata>
  <sodipodi:namedview
     pagecolor="#ffffff"
     bordercolor="#666666"
     borderopacity="1"
     objecttolerance="10"
     gridtolerance="10"
     guidetolerance="10"
     inkscape:pageopacity="0"
     inkscape:pageshadow="2"
     inkscape:window-width="1920"
     inkscape:window-height="1016"
     id="namedview1240"
     showgrid="false"
     inkscape:zoom="10.438849"
     inkscape:cx="69.5"
     inkscape:cy="10"
     inkscape:window-x="0"
     inkscape:window-y="27"
     inkscape:window-maximized="1"
     inkscape:current-layer="svg1238" />
  <defs
     id="defs1224">
    <linearGradient
       id="a"
       x1="72.195%"
       x2="17.503%"
       y1="0%"
       y2="100%">
      <stop
         offset="0%"
         stop-color="#33D35E"
         id="stop1219" />
      <stop
         offset="100%"
         stop-color="#2AB6D9"
         id="stop1221" />
    </linearGradient>
    <linearGradient
       inkscape:collect="always"
       xlink:href="#a"
       id="linearGradient1244"
       x1="13.130968"
       y1="0"
       x2="3.18348"
       y2="18.188196"
       gradientTransform="scale(0.92307123,1.08334)"
       gradientUnits="userSpaceOnUse" />
    <linearGradient
       inkscape:collect="always"
       xlink:href="#a"
       id="linearGradient1246"
       x1="21.113017"
       y1="0"
       x2="11.165529"
       y2="18.188196"
       gradientTransform="scale(0.92307123,1.08334)"
       gradientUnits="userSpaceOnUse" />
    <linearGradient
       inkscape:collect="always"
       xlink:href="#a"
       id="linearGradient1248"
       x1="29.096234"
       y1="0"
       x2="19.149042"
       y2="18.187654"
       gradientTransform="scale(0.92304374,1.0833723)"
       gradientUnits="userSpaceOnUse" />
    <linearGradient
       inkscape:collect="always"
       xlink:href="#a"
       id="linearGradient1250"
       x1="17.993343"
       y1="0"
       x2="4.3623174"
       y2="24.923254"
       gradientTransform="scale(1.264883,0.79058697)"
       gradientUnits="userSpaceOnUse" />
  </defs>
  <path
     style="color:#000000;font-style:normal;font-variant:normal;font-weight:normal;font-stretch:normal;font-size:medium;line-height:normal;font-family:sans-serif;font-variant-ligatures:normal;font-variant-position:normal;font-variant-caps:normal;font-variant-numeric:normal;font-variant-alternates:normal;font-feature-settings:normal;text-indent:0;text-align:start;text-decoration:none;text-decoration-line:none;text-decoration-style:solid;text-decoration-color:#000000;letter-spacing:normal;word-spacing:normal;text-transform:none;writing-mode:lr-tb;direction:ltr;text-orientation:mixed;dominant-baseline:auto;baseline-shift:baseline;text-anchor:start;white-space:normal;shape-padding:0;clip-rule:nonzero;display:inline;overflow:visible;visibility:visible;opacity:1;isolation:auto;mix-blend-mode:normal;color-interpolation:sRGB;color-interpolation-filters:linearRGB;solid-color:#000000;solid-opacity:1;vector-effect:none;fill-opacity:1;fill-rule:nonzero;stroke:none;stroke-width:1;stroke-linecap:butt;stroke-linejoin:miter;stroke-miterlimit:4;stroke-dasharray:none;stroke-dashoffset:0;stroke-opacity:1;color-rendering:auto;image-rendering:auto;shape-rendering:auto;text-rendering:auto;enable-background:accumulate;fill:#ffffff"
     d="M 84.099609,-0.5 V 3.6054688 H 78.875 l -1.914062,5.328125 -2.052735,-5.328125 h -5.371094 l 4.91211,10.9062502 c -0.213701,0.521409 -0.405868,0.896612 -0.617188,1.054687 -0.241904,0.180954 -0.599607,0.273438 -1.304687,0.273438 h -1.578125 v 4.363281 h 1.841797 c 1.539355,0 2.774938,-0.346333 3.783203,-1.175781 1.008264,-0.829448 1.770464,-2.086567 2.550781,-3.857422 L 84.099609,3.828125 v 12.146484 h 3.72461 l 0.279297,-0.640625 c 0.921927,0.607154 1.987364,1.011719 3.191406,1.011719 3.739524,0 6.472656,-2.780551 6.472656,-6.5468749 0,-3.7648593 -2.730389,-6.5468049 -6.46875,-6.5488281 h -0.0039 C 90.475035,3.2441447 89.71677,3.5708201 88.970703,3.8964844 V -0.5 Z m 42.779301,0 v 16.474609 h 4.91601 v -0.5 -2.984375 l 2.0625,3.484375 h 5.82813 l -4.23047,-6.4511715 3.86914,-5.9179687 h -5.60156 l -1.92774,3.1679687 V -0.5 Z m -41.779301,1 h 2.871094 V 5.4257812 L 88.730469,4.9609375 C 89.500709,4.4895272 90.387994,4.2429569 91.291016,4.25 h 0.002 0.002 c 3.261544,0 5.472656,2.2490577 5.472656,5.5488281 0,3.2996759 -2.21218,5.5468749 -5.472656,5.5468749 -1.214135,0 -2.272553,-0.402227 -3.107422,-1.099609 l -0.511719,-0.425782 -0.505859,1.154297 h -2.070313 z m 42.779301,0 h 2.91601 v 8.3417969 1.5019531 4.630859 h -2.91601 z M 37.753906,3.2324219 c -3.807536,0 -6.675781,2.8144737 -6.675781,6.5488281 0,3.725232 2.885101,6.566406 6.675781,6.566406 3.041575,0 5.56745,-1.772552 6.429688,-4.568359 l 0.199218,-0.648438 h -0.0625 l 0.04883,-0.339843 c 0.0536,-0.369947 0.08594,-0.737221 0.08594,-1.1093754 0,-3.5885732 -2.799271,-6.4492187 -6.701172,-6.4492187 z m 26.927735,0 c -1.540135,0 -2.864219,0.3876253 -3.824219,1.125 -0.96,0.7373747 -1.53125,1.8430409 -1.53125,3.125 0,1.5197767 0.70486,2.5522761 1.621094,3.1367191 0.616394,0.393182 1.290063,0.480681 1.951172,0.626953 h -3.732422 l 0.0078,0.507812 c 0.01984,1.35726 0.566412,2.542971 1.539063,3.351563 0.97265,0.808592 2.340976,1.242187 3.978515,1.242187 h 0.5 v -0.07031 c 1.36713,-0.08166 2.574642,-0.42756 3.451172,-1.111328 0.988729,-0.771293 1.574219,-1.921358 1.574219,-3.25 0,-1.579493 -0.724456,-2.6142861 -1.662109,-3.1777348 C 67.856125,8.318506 67.096512,8.2165224 66.369141,8.0761719 h 3.636718 l -0.0098,-0.5097657 C 69.971542,6.2813437 69.417487,5.1604058 68.472656,4.4003906 67.527826,3.6403755 66.218269,3.2324219 64.681641,3.2324219 Z m -13.636719,0.019531 c -3.716219,0 -6.462891,2.7691355 -6.462891,6.5253907 0,3.7674562 2.743604,6.5703122 6.462891,6.5703122 h 0.5 v -0.08594 c 0.993634,-0.0821 1.892004,-0.396921 2.679687,-0.900391 l 0.251953,0.601563 h 3.861329 V 3.59375 H 54.595703 L 54.285156,4.2753906 C 53.347085,3.6606516 52.26544,3.2519531 51.044922,3.2519531 Z m 53.324218,0 c -3.71622,0 -6.458984,2.7692302 -6.458984,6.5253907 0,3.7673612 2.739694,6.5703122 6.458984,6.5703122 h 0.5 v -0.08594 c 0.99382,-0.08204 1.89383,-0.396839 2.68164,-0.900391 l 0.25195,0.601563 h 3.85938 V 3.59375 h -3.73828 l -0.31055,0.6816406 c -0.93804,-0.6152902 -2.0232,-1.0234375 -3.24414,-1.0234375 z m 16.125,0.017578 c -1.33034,0 -2.46119,0.5101244 -3.37109,1.2617188 l -0.42383,-0.9257812 h -3.56836 V 15.974609 h 4.91602 v -0.5 -6.0722652 c 0,-0.6426431 0.15745,-1.0933697 0.38867,-1.3710938 0.23121,-0.2777241 0.54109,-0.4277344 1.03515,-0.4277344 0.38195,0 0.55951,0.091292 0.71094,0.2929688 0.15143,0.2016769 0.27148,0.5866571 0.27148,1.1855468 v 6.8906248 h 4.91407 V 8.5429688 c 0,-1.5482009 -0.46737,-2.8732462 -1.32813,-3.8105469 -0.86075,-0.9373007 -2.10649,-1.4628906 -3.54492,-1.4628907 z M 37.753906,4.2324219 c 3.4261,0 5.701172,2.3677919 5.701172,5.4492187 0,0.174726 -0.02708,0.3579184 -0.04297,0.5371094 h -8.585937 l 0.117187,0.595703 c 0.143949,0.736112 0.466489,1.349082 0.960938,1.765625 0.494449,0.416544 1.140298,0.617188 1.849609,0.617188 0.922878,0 1.705791,-0.417954 2.222656,-1.066407 h 2.933594 c -0.898183,1.980986 -2.760908,3.216797 -5.15625,3.216797 -3.30332,0 -5.675781,-2.345638 -5.675781,-5.566406 0,-3.2356456 2.347318,-5.5488281 5.675781,-5.5488281 z m 26.927735,0 c 1.359372,0 2.435892,0.3615308 3.164062,0.9472656 0.592266,0.4764143 0.906159,1.1342495 1.037109,1.8964844 h -2.767578 c -0.08559,-0.2444833 -0.106357,-0.5291121 -0.296875,-0.6875 -0.328969,-0.2734899 -0.751439,-0.375 -1.185547,-0.375 -0.396537,0 -0.771529,0.094475 -1.068359,0.3261719 -0.29683,0.2316968 -0.482422,0.6147589 -0.482422,1.0117187 0,0.2737291 0.113351,0.5478058 0.285157,0.7363281 0.171805,0.1885224 0.379506,0.3023594 0.597656,0.390625 0.436299,0.1765312 0.941127,0.2590864 1.480468,0.3554688 0.902515,0.1603019 1.890858,0.3381674 2.595704,0.7617187 0.704846,0.4235509 1.175781,1.0168049 1.175781,2.3203129 0,1.047357 -0.418729,1.86123 -1.1875,2.460937 -0.768771,0.599707 -1.913652,0.96875 -3.337891,0.96875 h -0.01367 c -1.45392,-0.0027 -2.574278,-0.386318 -3.324218,-1.009765 -0.623827,-0.518606 -0.948092,-1.241544 -1.072266,-2.089844 h 2.876953 c 0.09259,0.289222 0.127046,0.620397 0.34375,0.802734 0.351754,0.29597 0.80469,0.412109 1.261719,0.41211 0.371724,0 0.744654,-0.08915 1.060547,-0.3125 0.315893,-0.223354 0.554687,-0.620686 0.554687,-1.06836 0,-0.273248 -0.105922,-0.545178 -0.273437,-0.738281 -0.167516,-0.193104 -0.376546,-0.315775 -0.595703,-0.410156 -0.438314,-0.188762 -0.949439,-0.275608 -1.501954,-0.367188 l -0.002,-0.002 C 63.138384,10.422267 62.177392,10.217448 61.484375,9.7753906 60.791358,9.3333328 60.326172,8.7196451 60.326172,7.4824219 c 0,-0.998041 0.401625,-1.764406 1.140625,-2.3320313 0.739,-0.5676253 1.842978,-0.9179687 3.214844,-0.9179687 z m -13.636719,0.019531 c 1.227723,0 2.301969,0.4047046 3.154297,1.1074219 L 54.703125,5.7734375 55.240234,4.59375 h 2.097657 v 10.369141 h -2.195313 l -0.464844,-1.113282 -0.519531,0.419922 c -0.842193,0.682811 -1.902877,1.076172 -3.113281,1.076172 h -0.0098 c -3.226929,-0.005 -5.453125,-2.273456 -5.453125,-5.5683592 0,-3.2857449 2.22711,-5.5253907 5.462891,-5.5253907 z m 53.324218,0 c 1.22772,0 2.30521,0.405017 3.15625,1.1074219 l 0.50391,0.4140625 0.53711,-1.1796875 h 2.0957 v 10.369141 h -2.19336 l -0.46484,-1.113282 -0.51953,0.419922 c -0.8422,0.682811 -1.90484,1.076172 -3.11524,1.076172 h -0.01 c -3.22693,-0.005 -5.449224,-2.273365 -5.449224,-5.5683592 0,-3.2858396 2.223204,-5.5253907 5.458984,-5.5253907 z m 16.125,0.017578 c 1.20157,0 2.14285,0.4137226 2.80859,1.1386719 0.66575,0.7249493 1.06446,1.7859665 1.06446,3.1347657 v 6.4296872 h -2.91407 V 9.0820312 c 0,-0.7241102 -0.12908,-1.3275831 -0.47265,-1.7851562 -0.34357,-0.4575731 -0.90571,-0.6933594 -1.50977,-0.6933594 -0.72693,0 -1.37965,0.2765835 -1.80468,0.7871094 -0.42504,0.5105259 -0.61915,1.2073618 -0.61914,2.0117188 v 5.5722652 h -2.91602 V 4.6054688 h 1.92578 l 0.7207,1.5742187 0.50977,-0.5683594 c 0.74823,-0.833033 1.86515,-1.3417968 3.20703,-1.3417969 z M 71.083984,4.6054688 h 3.138672 l 2.771485,7.1972652 2.583984,-7.1972652 h 3.089844 L 78.210938,14.767578 c -0.752352,1.707005 -1.460772,2.817789 -2.273438,3.486328 -0.812986,0.668802 -1.74984,0.949219 -3.146484,0.949219 h -0.841797 v -2.363281 h 0.578125 c 0.79192,0 1.410998,-0.10511 1.902344,-0.472656 0.491345,-0.367547 0.770745,-0.919558 1.046874,-1.65625 l 0.07227,-0.19336 z m 63.199216,0 h 3.19336 l -3.21679,4.9199218 3.57421,5.4492184 h -3.40625 L 131.24609,9.6015625 Z M 37.753906,6.3007812 c -1.322969,0 -2.369634,0.8212079 -2.732422,2.1132813 l -0.179687,0.6367187 h 5.255859 L 39.726562,8.6796875 40.597656,8.5507812 v -0.5 h -0.263672 c -0.482328,-1.0454345 -1.382187,-1.75 -2.580078,-1.75 z M 51.568359,6.703125 c -1.726225,0 -3.044921,1.3654493 -3.044921,3.0820312 0,1.7269758 1.32616,3.0937498 3.044921,3.0937498 1.717933,0 3.042969,-1.366774 3.042969,-3.0937498 0,-1.7186158 -1.325036,-3.0820312 -3.042969,-3.0820312 z m 53.326171,0 c -1.72539,0 -3.04492,1.3652233 -3.04492,3.0820312 0,1.7269758 1.32616,3.0937498 3.04492,3.0937498 1.71876,0 3.04492,-1.366774 3.04492,-3.0937498 0,-1.7186158 -1.32616,-3.0820312 -3.04492,-3.0820312 z m -14.123046,0.00195 c -1.718761,0 -3.044922,1.3659376 -3.044922,3.09375 0,1.7161119 1.326161,3.0800779 3.044922,3.0800779 h 0.5 v -0.207031 c 1.424462,-0.266276 2.544922,-1.352633 2.544922,-2.8730469 0,-1.7269753 -1.326989,-3.09375 -3.044922,-3.09375 z M 64.632812,7.0136719 c 0.275893,0 0.452892,0.066068 0.544922,0.1425781 0.09203,0.07651 0.152344,0.1687217 0.152344,0.4199219 V 7.78125 C 64.942054,7.7076118 64.54747,7.6367421 64.339844,7.5527344 64.205494,7.498375 64.130538,7.4415714 64.105469,7.4140625 c -0.02507,-0.027509 -0.02344,-0.013229 -0.02344,-0.0625 0,-0.1300402 0.02649,-0.1671031 0.09766,-0.2226563 0.07117,-0.055553 0.221662,-0.1152343 0.453124,-0.1152343 z M 37.753906,7.3007812 c 0.702357,0 1.132934,0.2965882 1.462891,0.75 h -2.857422 c 0.311847,-0.4531222 0.722623,-0.75 1.394531,-0.75 z M 51.568359,7.703125 c 1.214068,0 2.042969,0.8506471 2.042969,2.0820312 0,1.2430248 -0.828901,2.0937498 -2.042969,2.0937498 -1.215239,0 -2.044921,-0.850725 -2.044921,-2.0937498 0,-1.233418 0.819147,-2.0820312 2.044921,-2.0820312 z m 53.326171,0 c 1.21524,0 2.04492,0.8506471 2.04492,2.0820312 0,1.2430248 -0.82968,2.0937498 -2.04492,2.0937498 -1.21524,0 -2.04492,-0.850725 -2.04492,-2.0937498 0,-1.233192 0.82032,-2.0820312 2.04492,-2.0820312 z m -14.123046,0.00195 c 1.214068,0 2.044922,0.8507253 2.044922,2.09375 0,1.2270169 -0.841182,2.0800779 -2.044922,2.0800779 -1.215239,0 -2.044921,-0.85219 -2.044922,-2.0800779 0,-1.2441875 0.829683,-2.09375 2.044922,-2.09375 z M 36.236328,11.21875 h 3.230469 l -0.09375,0.166016 c -0.27556,0.48736 -0.850225,0.8125 -1.619141,0.8125 -0.527689,0 -0.912527,-0.136356 -1.205078,-0.382813 -0.146275,-0.123228 -0.207153,-0.399605 -0.3125,-0.595703 z m 27.707031,0.355469 c 0.48671,0.08359 0.927571,0.17018 1.171875,0.27539 0.132343,0.05699 0.206516,0.116323 0.234375,0.148438 0.02786,0.03212 0.0293,0.02728 0.0293,0.08203 0,0.139326 -0.032,0.182056 -0.130859,0.251953 -0.09886,0.0699 -0.283099,0.128906 -0.484375,0.128907 -0.284971,0 -0.494442,-0.07446 -0.617188,-0.177735 -0.122745,-0.10328 -0.203125,-0.237534 -0.203125,-0.537109 z"
     id="path1226"
     inkscape:connector-curvature="0" />
  <g
     style="fill:url(#linearGradient1250);fill-rule:evenodd"
     id="g1234">
    <path
       inkscape:connector-curvature="0"
       style="fill:url(#linearGradient1244)"
       id="path1228"
       d="M 10.802,0 0,19.704 H 5.986 L 16.789,0 Z" />
    <path
       inkscape:connector-curvature="0"
       style="opacity:0.5;fill:url(#linearGradient1246)"
       id="path1230"
       d="M 18.171,0 7.368,19.704 h 5.986 L 24.157,0 Z" />
    <path
       inkscape:connector-curvature="0"
       style="opacity:0.15;fill:url(#linearGradient1248)"
       id="path1232"
       d="M 25.539,0 14.737,19.704 h 5.986 L 31.525,0 Z" />
  </g>
</svg>
